# xmcd
#
# Track frame offsets:
# 150
# 17214
# 31954
# 45111
# 59050
# 73275
# 88549
# 103856
# 120031
# 132603
# 147295
# 164299
#
# Disc length: 2410 seconds
#
#
# Revision: 2
# Processed by: cddbd v1.5.2PL0 Copyright (c) Steve Scherf et al.
# Submitted via: FreeRIP 2.951 
#
DISCID=a509680c
DTITLE=Vera Martinova - Dal jen vejdi
DYEAR=1989
DGENRE=Country
TTITLE0=Dal jen vejdi
TTITLE1=Brzy bude rano
TTITLE2=Zitra dalsi vlaky pojedou
TTITLE3=Kun, co vyhral nejslavnejsi steeple chase
TTITLE4=Maly dum nad skalou
TTITLE5=Az na vrcholky hor
TTITLE6=Nocni blues
TTITLE7=Zadny
TTITLE8=Na cestach
TTITLE9=Posledni rallye
TTITLE10=Toulavy dziny
TTITLE11=Rodeo je jako svet
EXTD=
EXTT0=
EXTT1=
EXTT2=
EXTT3=
EXTT4=
EXTT5=
EXTT6=
EXTT7=
EXTT8=
EXTT9=
EXTT10=
EXTT11=
PLAYORDER=
